<svg width="24" height="24" viewBox="0 0 24 24" fill="none" xmlns="http://www.w3.org/2000/svg">
<path d="M1.58105 18L5.90576 6.02197H7.4082V8.12207H6.84375L3.54004 18H1.58105ZM3.66455 14.7627L4.1875 13.2686H9.64111L10.1641 14.7627H3.66455ZM10.2803 18L6.98486 8.12207V6.02197H7.92285L12.2393 18H10.2803ZM16.4893 18.1494C15.9193 18.1494 15.4074 18.0415 14.9536 17.8257C14.5054 17.6043 14.1512 17.2917 13.8911 16.8877C13.631 16.4837 13.501 16.0106 13.501 15.4683V15.4517C13.501 14.9093 13.631 14.4473 13.8911 14.0654C14.1567 13.6836 14.5386 13.3848 15.0366 13.1689C15.5402 12.9476 16.1489 12.8148 16.8628 12.7705L20.1914 12.5713V13.8413L17.1118 14.0405C16.492 14.0793 16.0355 14.2121 15.7422 14.439C15.4489 14.6603 15.3022 14.973 15.3022 15.377V15.3936C15.3022 15.8031 15.46 16.1268 15.7754 16.3647C16.0908 16.5972 16.4893 16.7134 16.9707 16.7134C17.4189 16.7134 17.8174 16.6248 18.166 16.4478C18.5202 16.2651 18.7969 16.0216 18.9961 15.7173C19.1953 15.4074 19.2949 15.0588 19.2949 14.6714V11.8325C19.2949 11.3345 19.14 10.9554 18.8301 10.6953C18.5257 10.4297 18.0719 10.2969 17.4688 10.2969C16.9652 10.2969 16.5529 10.3854 16.2319 10.5625C15.9165 10.7396 15.7062 10.9886 15.6011 11.3096L15.5845 11.3345H13.8496L13.8579 11.2764C13.9299 10.7783 14.1263 10.3467 14.4473 9.98145C14.7738 9.61068 15.1999 9.32292 15.7256 9.11816C16.2568 8.91341 16.8628 8.81104 17.5435 8.81104C18.3016 8.81104 18.9435 8.93278 19.4692 9.17627C20.0005 9.41423 20.4017 9.76009 20.6729 10.2139C20.9495 10.6621 21.0879 11.2017 21.0879 11.8325V18H19.2949V16.7217H19.1621C18.985 17.026 18.7637 17.2861 18.498 17.502C18.2324 17.7122 17.9308 17.8727 17.5933 17.9834C17.2557 18.0941 16.8877 18.1494 16.4893 18.1494Z" fill="#8E8E93"/>
</svg>
