<svg width="24" height="24" viewBox="0 0 24 24" fill="none" xmlns="http://www.w3.org/2000/svg">
<path d="M20.5349 5.50292C20.0707 5.02645 19.5194 4.64848 18.9128 4.39061C18.3061 4.13273 17.6558 4 16.9991 4C16.3424 4 15.6921 4.13273 15.0854 4.39061C14.4787 4.64848 13.9275 5.02645 13.4632 5.50292L12.4998 6.4913L11.5363 5.50292C10.5985 4.54094 9.32662 4.0005 8.00043 4.0005C6.67423 4.0005 5.40235 4.54094 4.46459 5.50292C3.52683 6.46491 3 7.76964 3 9.1301C3 10.4906 3.52683 11.7953 4.46459 12.7573L5.42808 13.7457L12.4998 21L19.5714 13.7457L20.5349 12.7573C20.9994 12.281 21.3678 11.7156 21.6192 11.0932C21.8706 10.4708 22 9.80377 22 9.1301C22 8.45642 21.8706 7.78935 21.6192 7.16699C21.3678 6.54463 20.9994 5.97917 20.5349 5.50292Z" stroke="#8E8E93" stroke-width="1.5" stroke-linecap="round" stroke-linejoin="round"/>
</svg>
