<svg width="24" height="24" viewBox="0 0 24 24" fill="none" xmlns="http://www.w3.org/2000/svg">
<path d="M17.7299 1.46915C17.8947 1.17584 18.2058 1 18.5423 1C19.0712 1 19.5 1.42879 19.5 1.95774V21C19.5 21.5523 19.0523 22 18.5 22H18C17.4477 22 17 21.5523 17 21V13.618C17 13.2393 16.7842 12.8915 16.4977 12.6437C15.9052 12.1314 15 11.0183 15 9C15 6.55506 16.9926 2.78174 17.7299 1.46915Z" fill="black"/>
<path d="M4.46785 1.48228C4.48594 1.21089 4.71136 1 4.98335 1C5.26869 1 5.5 1.23131 5.5 1.51665V5.97732C5.5 6.26599 5.73401 6.5 6.02268 6.5C6.29301 6.5 6.51874 6.29386 6.54321 6.02464L6.95473 1.49795C6.98037 1.21593 7.21682 1 7.5 1C7.78318 1 8.01963 1.21593 8.04527 1.49795L8.45679 6.02464C8.48126 6.29386 8.70699 6.5 8.97732 6.5C9.26599 6.5 9.5 6.26599 9.5 5.97732V1.51665C9.5 1.23131 9.73131 1 10.0166 1C10.2886 1 10.5141 1.21089 10.5322 1.48228L10.9483 7.72449C10.9816 8.22332 10.8268 8.71653 10.5145 9.10692L9.43826 10.4522C9.15456 10.8068 9 11.2474 9 11.7016V20.75C9 21.4404 8.44036 22 7.75 22C7.05964 22 6.5 21.4404 6.5 20.75V11.8284C6.5 11.298 6.28929 10.7893 5.91421 10.4142L4.64172 9.14172C4.23392 8.73392 4.02201 8.16992 4.06037 7.59447L4.46785 1.48228Z" fill="black"/>
</svg>
