<svg width="42" height="42" viewBox="0 0 42 42" fill="none" xmlns="http://www.w3.org/2000/svg">
<rect width="42" height="42" rx="21" fill="#FF9500"/>
<path d="M31.1494 12.8506C30.5629 12.2639 29.8667 11.7985 29.1003 11.481C28.334 11.1634 27.5126 11 26.6831 11C25.8535 11 25.0321 11.1634 24.2658 11.481C23.4994 11.7985 22.8032 12.2639 22.2167 12.8506L20.9997 14.0677L19.7826 12.8506C18.5981 11.6661 16.9915 11.0006 15.3163 11.0006C13.6411 11.0006 12.0346 11.6661 10.85 12.8506C9.66547 14.0352 9 15.6417 9 17.3169C9 18.9921 9.66547 20.5987 10.85 21.7833L12.0671 23.0003L20.9997 31.9329L29.9323 23.0003L31.1494 21.7833C31.7361 21.1968 32.2015 20.5006 32.519 19.7342C32.8366 18.9679 33 18.1465 33 17.3169C33 16.4874 32.8366 15.666 32.519 14.8997C32.2015 14.1333 31.7361 13.4371 31.1494 12.8506Z" fill="black"/>
</svg>
