<svg width="24" height="24" viewBox="0 0 24 24" fill="none" xmlns="http://www.w3.org/2000/svg">
<path fill-rule="evenodd" clip-rule="evenodd" d="M4 3C3.44772 3 3 3.44771 3 4V4.13795C3 4.37189 3.08202 4.59842 3.23178 4.77813L10.2682 13.2219C10.418 13.4016 10.5 13.6281 10.5 13.8621V18.1327C10.5 18.6304 10.1341 19.0523 9.64142 19.1227L7.6897 19.4015C7.29395 19.458 7 19.7969 7 20.1967C7 20.6404 7.35965 21 7.8033 21H15.1967C15.6404 21 16 20.6404 16 20.1967C16 19.7969 15.706 19.458 15.3103 19.4015L13.3586 19.1227C12.8659 19.0523 12.5 18.6304 12.5 18.1327V13.8621C12.5 13.6281 12.582 13.4016 12.7318 13.2219L19.7682 4.77813C19.918 4.59842 20 4.37189 20 4.13795V4C20 3.44772 19.5523 3 19 3H4ZM6 4.25H4.30459L5.44504 5.5045L10.445 11.0045C10.7237 11.311 11.198 11.3336 11.5045 11.055C11.811 10.7763 11.8336 10.302 11.555 9.9955L7.69541 5.75H17C17.4142 5.75 17.75 5.41421 17.75 5C17.75 4.58579 17.4142 4.25 17 4.25H6Z" fill="black"/>
</svg>
